<svg width="22" height="21" viewBox="0 0 22 21" fill="none" xmlns="http://www.w3.org/2000/svg">
<foreignObject x="-13.1021" y="-20" width="47.2334" height="48.0435"><div xmlns="http://www.w3.org/1999/xhtml" style="backdrop-filter:blur(10px);clip-path:url(#bgblur_0_527_1350_clip_path);height:100%;width:100%"></div></foreignObject><path data-figma-bg-blur-radius="20" d="M7.88845 1.89088C7.5843 2.07088 7.39775 2.39805 7.39775 2.75147L7.39775 5.29201C7.39775 5.64543 7.5843 5.9726 7.88845 6.1526L10.0032 7.40407C10.317 7.58982 10.7071 7.58996 11.0211 7.40443L13.14 6.15249C13.4445 5.97258 13.6313 5.64521 13.6313 5.29154V2.75194C13.6313 2.39827 13.4445 2.0709 13.14 1.89099L11.0211 0.639049C10.7071 0.453522 10.317 0.453659 10.0032 0.639409L7.88845 1.89088Z" stroke="#070707" stroke-miterlimit="10"/>
<foreignObject x="-7.33643" y="-15.4897" width="47.7969" height="47.8114"><div xmlns="http://www.w3.org/1999/xhtml" style="backdrop-filter:blur(10px);clip-path:url(#bgblur_1_527_1350_clip_path);height:100%;width:100%"></div></foreignObject><path data-figma-bg-blur-radius="20" d="M17.7776 5.26005C17.5124 5.02641 17.1436 4.95009 16.8075 5.0593L14.3913 5.84437C14.0552 5.95358 13.8016 6.23211 13.7244 6.57699L13.1877 8.97492C13.108 9.33083 13.2285 9.70189 13.5019 9.94319L15.3474 11.5715C15.6126 11.8055 15.9817 11.882 16.318 11.7727L18.7333 10.9879C19.0697 10.8787 19.3233 10.5998 19.4003 10.2546L19.9362 7.85257C20.0156 7.49661 19.8949 7.12564 19.6213 6.88452L17.7776 5.26005Z" stroke="#070707" stroke-miterlimit="10"/>
<foreignObject x="-9.70654" y="-8.24569" width="47.9185" height="47.5434"><div xmlns="http://www.w3.org/1999/xhtml" style="backdrop-filter:blur(10px);clip-path:url(#bgblur_2_527_1350_clip_path);height:100%;width:100%"></div></foreignObject><path data-figma-bg-blur-radius="20" d="M17.6296 15.7065C17.7699 15.3821 17.7285 15.0078 17.5208 14.7219L16.0275 12.6665C15.8197 12.3806 15.4765 12.2256 15.1246 12.2587L12.6782 12.4893C12.3151 12.5235 11.9994 12.7527 11.8544 13.0873L10.8761 15.3456C10.7355 15.6702 10.7768 16.0448 10.9846 16.3309L12.4774 18.3855C12.6853 18.6716 13.0288 18.8267 13.3809 18.7933L15.831 18.5606C16.1941 18.5262 16.5096 18.2968 16.6544 17.962L17.6296 15.7065Z" stroke="#070707" stroke-miterlimit="10"/>
<foreignObject x="-17.1826" y="-8.2453" width="47.918" height="47.5434"><div xmlns="http://www.w3.org/1999/xhtml" style="backdrop-filter:blur(10px);clip-path:url(#bgblur_3_527_1350_clip_path);height:100%;width:100%"></div></foreignObject><path data-figma-bg-blur-radius="20" d="M7.64843 18.7937C8.0003 18.8269 8.34353 18.6718 8.55126 18.3859L10.0446 16.3306C10.2523 16.0446 10.2937 15.6703 10.1534 15.3459L9.17818 13.0905C9.03343 12.7557 8.71791 12.5263 8.35482 12.4918L5.90472 12.2592C5.55263 12.2258 5.20907 12.3808 5.00119 12.6669L3.50845 14.7215C3.30057 15.0076 3.25928 15.3823 3.39988 15.7068L4.37823 17.9651C4.52321 18.2998 4.8389 18.529 5.20201 18.5632L7.64843 18.7937Z" stroke="#070707" stroke-miterlimit="10"/>
<foreignObject x="-19.4326" y="-15.4895" width="47.7964" height="47.8114"><div xmlns="http://www.w3.org/1999/xhtml" style="backdrop-filter:blur(10px);clip-path:url(#bgblur_4_527_1350_clip_path);height:100%;width:100%"></div></foreignObject><path data-figma-bg-blur-radius="20" d="M1.62819 10.2552C1.70539 10.6001 1.9589 10.8786 2.29503 10.9878L4.71122 11.7729C5.04734 11.8821 5.41615 11.8058 5.68133 11.5721L7.52503 9.94765C7.79868 9.70654 7.91936 9.33557 7.83994 8.9796L7.30405 6.57754C7.22704 6.23235 6.97342 5.95352 6.63706 5.84422L4.22176 5.05944C3.8854 4.95015 3.51632 5.02666 3.25112 5.26066L1.40568 6.88898C1.1322 7.13029 1.01178 7.50134 1.09145 7.85725L1.62819 10.2552Z" stroke="#070707" stroke-miterlimit="10"/>
<defs>
<clipPath id="bgblur_0_527_1350_clip_path" transform="translate(13.1021 20)"><path d="M7.88845 1.89088C7.5843 2.07088 7.39775 2.39805 7.39775 2.75147L7.39775 5.29201C7.39775 5.64543 7.5843 5.9726 7.88845 6.1526L10.0032 7.40407C10.317 7.58982 10.7071 7.58996 11.0211 7.40443L13.14 6.15249C13.4445 5.97258 13.6313 5.64521 13.6313 5.29154V2.75194C13.6313 2.39827 13.4445 2.0709 13.14 1.89099L11.0211 0.639049C10.7071 0.453522 10.317 0.453659 10.0032 0.639409L7.88845 1.89088Z"/>
</clipPath><clipPath id="bgblur_1_527_1350_clip_path" transform="translate(7.33643 15.4897)"><path d="M17.7776 5.26005C17.5124 5.02641 17.1436 4.95009 16.8075 5.0593L14.3913 5.84437C14.0552 5.95358 13.8016 6.23211 13.7244 6.57699L13.1877 8.97492C13.108 9.33083 13.2285 9.70189 13.5019 9.94319L15.3474 11.5715C15.6126 11.8055 15.9817 11.882 16.318 11.7727L18.7333 10.9879C19.0697 10.8787 19.3233 10.5998 19.4003 10.2546L19.9362 7.85257C20.0156 7.49661 19.8949 7.12564 19.6213 6.88452L17.7776 5.26005Z"/>
</clipPath><clipPath id="bgblur_2_527_1350_clip_path" transform="translate(9.70654 8.24569)"><path d="M17.6296 15.7065C17.7699 15.3821 17.7285 15.0078 17.5208 14.7219L16.0275 12.6665C15.8197 12.3806 15.4765 12.2256 15.1246 12.2587L12.6782 12.4893C12.3151 12.5235 11.9994 12.7527 11.8544 13.0873L10.8761 15.3456C10.7355 15.6702 10.7768 16.0448 10.9846 16.3309L12.4774 18.3855C12.6853 18.6716 13.0288 18.8267 13.3809 18.7933L15.831 18.5606C16.1941 18.5262 16.5096 18.2968 16.6544 17.962L17.6296 15.7065Z"/>
</clipPath><clipPath id="bgblur_3_527_1350_clip_path" transform="translate(17.1826 8.2453)"><path d="M7.64843 18.7937C8.0003 18.8269 8.34353 18.6718 8.55126 18.3859L10.0446 16.3306C10.2523 16.0446 10.2937 15.6703 10.1534 15.3459L9.17818 13.0905C9.03343 12.7557 8.71791 12.5263 8.35482 12.4918L5.90472 12.2592C5.55263 12.2258 5.20907 12.3808 5.00119 12.6669L3.50845 14.7215C3.30057 15.0076 3.25928 15.3823 3.39988 15.7068L4.37823 17.9651C4.52321 18.2998 4.8389 18.529 5.20201 18.5632L7.64843 18.7937Z"/>
</clipPath><clipPath id="bgblur_4_527_1350_clip_path" transform="translate(19.4326 15.4895)"><path d="M1.62819 10.2552C1.70539 10.6001 1.9589 10.8786 2.29503 10.9878L4.71122 11.7729C5.04734 11.8821 5.41615 11.8058 5.68133 11.5721L7.52503 9.94765C7.79868 9.70654 7.91936 9.33557 7.83994 8.9796L7.30405 6.57754C7.22704 6.23235 6.97342 5.95352 6.63706 5.84422L4.22176 5.05944C3.8854 4.95015 3.51632 5.02666 3.25112 5.26066L1.40568 6.88898C1.1322 7.13029 1.01178 7.50134 1.09145 7.85725L1.62819 10.2552Z"/>
</clipPath></defs>
</svg>
