<svg width="9" height="11" viewBox="0 0 9 11" fill="none" xmlns="http://www.w3.org/2000/svg">
<path d="M8.62228 6.43453L4.68477 10.372C4.64414 10.4127 4.59589 10.445 4.54278 10.467C4.48967 10.489 4.43274 10.5003 4.37524 10.5003C4.31775 10.5003 4.26082 10.489 4.20771 10.467C4.1546 10.445 4.10634 10.4127 4.06571 10.372L0.128212 6.43453C0.0461192 6.35244 0 6.2411 0 6.125C0 6.0089 0.0461192 5.89756 0.128212 5.81547C0.210305 5.73338 0.321647 5.68726 0.437743 5.68726C0.55384 5.68726 0.665182 5.73338 0.747275 5.81547L3.93774 9.00648V0.4375C3.93774 0.321468 3.98384 0.210188 4.06588 0.128141C4.14793 0.0460937 4.25921 0 4.37524 0C4.49128 0 4.60256 0.0460937 4.6846 0.128141C4.76665 0.210188 4.81274 0.321468 4.81274 0.4375V9.00648L8.00321 5.81547C8.08531 5.73338 8.19665 5.68726 8.31274 5.68726C8.42884 5.68726 8.54018 5.73338 8.62228 5.81547C8.70437 5.89756 8.75049 6.0089 8.75049 6.125C8.75049 6.2411 8.70437 6.35244 8.62228 6.43453Z" fill="#070707"/>
</svg>
