<svg width="14" height="16" viewBox="0 0 14 16" fill="none" xmlns="http://www.w3.org/2000/svg">
<path d="M5.33438 5.15943L10.9028 5.15943C10.9603 5.1594 11.0173 5.1707 11.0704 5.19268C11.1235 5.21467 11.1718 5.24692 11.2124 5.28757C11.2531 5.32822 11.2853 5.37649 11.3073 5.42962C11.3293 5.48274 11.3406 5.53968 11.3406 5.59717L11.3406 11.1656C11.3406 11.2817 11.2945 11.3931 11.2124 11.4752C11.1303 11.5573 11.0189 11.6034 10.9028 11.6034C10.7867 11.6034 10.6754 11.5573 10.5933 11.4752C10.5112 11.3931 10.4651 11.2817 10.4651 11.1656L10.4655 6.65325L4.4063 12.7124C4.32426 12.7945 4.21298 12.8406 4.09694 12.8406C3.98091 12.8406 3.86963 12.7945 3.78758 12.7124C3.70554 12.6304 3.65944 12.5191 3.65944 12.4031C3.65944 12.287 3.70554 12.1758 3.78758 12.0937L9.84677 6.03453L5.33438 6.03492C5.21828 6.03492 5.10694 5.9888 5.02485 5.9067C4.94275 5.82461 4.89664 5.71327 4.89664 5.59717C4.89664 5.48108 4.94276 5.36973 5.02485 5.28764C5.10694 5.20555 5.21828 5.15943 5.33438 5.15943Z" fill="white"/>
</svg>
