<svg width="8" height="8" viewBox="0 0 8 8" fill="none" xmlns="http://www.w3.org/2000/svg">
<path d="M1.67471 4.18009e-06L7.24318 4.61975e-06C7.30067 -2.74143e-05 7.35761 0.0112737 7.41073 0.0332605C7.46386 0.055248 7.51212 0.0874914 7.55278 0.128146C7.59343 0.1688 7.62568 0.217069 7.64766 0.270193C7.66965 0.323317 7.68095 0.380254 7.68092 0.437748L7.68092 6.00621C7.68092 6.12231 7.6348 6.23365 7.55271 6.31575C7.47061 6.39784 7.35927 6.44396 7.24318 6.44396C7.12708 6.44396 7.01574 6.39784 6.93364 6.31575C6.85155 6.23365 6.80543 6.12231 6.80543 6.00621L6.80582 1.49382L0.746634 7.55301C0.664587 7.63506 0.553307 7.68115 0.437275 7.68115C0.321243 7.68115 0.209963 7.63506 0.127916 7.55301C0.0458689 7.47096 -0.000224802 7.35968 -0.000225025 7.24365C-0.000224914 7.12762 0.0458687 7.01634 0.127916 6.93429L6.1871 0.875105L1.67471 0.875492C1.55861 0.875491 1.44727 0.829373 1.36518 0.74728C1.28309 0.665187 1.23697 0.553845 1.23697 0.437748C1.23697 0.321651 1.28309 0.210309 1.36518 0.128217C1.44727 0.0461236 1.55861 4.52216e-06 1.67471 4.18009e-06Z" fill="#070707"/>
</svg>
