<svg width="44" height="44" viewBox="0 0 44 44" fill="none" xmlns="http://www.w3.org/2000/svg">
<rect width="44" height="44" rx="11" fill="white"/>
<rect x="0.5" y="0.5" width="43" height="43" rx="10.5" stroke="#070707" stroke-opacity="0.1"/>
<g clip-path="url(#clip0_522_632)">
<mask id="mask0_522_632" style="mask-type:luminance" maskUnits="userSpaceOnUse" x="10" y="10" width="24" height="24">
<path d="M33.7498 10H10V33.5379H33.7498V10Z" fill="white"/>
</mask>
<g mask="url(#mask0_522_632)">
<path d="M19.1091 18.5677V16.3316C19.1091 16.1433 19.1798 16.002 19.3445 15.9079L23.8404 13.3188C24.4524 12.9658 25.182 12.8011 25.9351 12.8011C28.7596 12.8011 30.5486 14.9902 30.5486 17.3203C30.5486 17.485 30.5486 17.6733 30.525 17.8617L25.8645 15.1312C25.5821 14.9665 25.2995 14.9665 25.0171 15.1312L19.1091 18.5677ZM29.607 27.2767V21.9336C29.607 21.6039 29.4656 21.3686 29.1833 21.2039L23.2754 17.7674L25.2054 16.661C25.3701 16.567 25.5114 16.567 25.6761 16.661L30.172 19.2502C31.4666 20.0035 32.3375 21.6039 32.3375 23.1574C32.3375 24.9462 31.2784 26.594 29.607 27.2767ZM17.7204 22.5693L15.7903 21.4395C15.6256 21.3454 15.5549 21.2041 15.5549 21.0158V15.8375C15.5549 13.319 17.485 11.4123 20.0978 11.4123C21.0865 11.4123 22.0043 11.742 22.7812 12.3303L18.1443 15.0138C17.8619 15.1785 17.7206 15.4138 17.7206 15.7435L17.7204 22.5693ZM21.8749 24.97L19.1091 23.4166V20.1214L21.8749 18.568L24.6405 20.1214V23.4166L21.8749 24.97ZM23.652 32.1256C22.6632 32.1256 21.7455 31.7961 20.9686 31.2076L25.6055 28.5243C25.8879 28.3595 26.0291 28.1243 26.0291 27.7945V20.9686L27.9829 22.0983C28.1476 22.1924 28.2183 22.3336 28.2183 22.522V27.7003C28.2183 30.2188 26.2645 32.1256 23.652 32.1256ZM18.0735 26.8768L13.5776 24.2876C12.2829 23.5343 11.4121 21.9339 11.4121 20.3804C11.4121 18.568 12.4949 16.9439 14.166 16.2612V21.6278C14.166 21.9574 14.3073 22.1928 14.5897 22.3575L20.4742 25.7704L18.5441 26.8768C18.3795 26.9708 18.2381 26.9708 18.0735 26.8768ZM17.8147 30.737C15.1549 30.737 13.2012 28.7362 13.2012 26.2647C13.2012 26.0764 13.2248 25.8881 13.2482 25.6997L17.8851 28.3831C18.1675 28.5479 18.4501 28.5479 18.7325 28.3831L24.6405 24.9703V27.2064C24.6405 27.3947 24.5698 27.536 24.4051 27.63L19.9093 30.2192C19.2972 30.5723 18.5678 30.737 17.8147 30.737ZM23.652 33.5379C26.5001 33.5379 28.8773 31.5136 29.4189 28.8302C32.0551 28.1476 33.7498 25.6761 33.7498 23.1576C33.7498 21.5099 33.0438 19.9095 31.7726 18.7561C31.8904 18.2617 31.961 17.7674 31.961 17.2733C31.961 13.9074 29.2305 11.3887 26.0764 11.3887C25.441 11.3887 24.829 11.4828 24.217 11.6947C23.1576 10.659 21.6983 10 20.0978 10C17.2497 10 14.8725 12.0241 14.3309 14.7075C11.6947 15.3902 10 17.8617 10 20.3801C10 22.0279 10.7061 23.6284 11.9771 24.7818C11.8595 25.2761 11.7888 25.7704 11.7888 26.2645C11.7888 29.6304 14.5193 32.1491 17.6733 32.1491C18.3088 32.1491 18.9208 32.055 19.5328 31.843C20.5919 32.8787 22.0513 33.5379 23.652 33.5379Z" fill="black"/>
</g>
</g>
<defs>
<clipPath id="clip0_522_632">
<rect width="24" height="24" fill="white" transform="translate(10 10)"/>
</clipPath>
</defs>
</svg>
