<svg width="44" height="44" viewBox="0 0 44 44" fill="none" xmlns="http://www.w3.org/2000/svg">
<rect width="44" height="44" rx="11" fill="#E67E6C"/>
<rect x="0.5" y="0.5" width="43" height="43" rx="10.5" stroke="#070707" stroke-opacity="0.1"/>
<g clip-path="url(#clip0_522_630)">
<path d="M21.48 32L20.98 31.62L20.7 31L20.98 29.76L21.3 28.16L21.56 26.88L21.8 25.3L21.94 24.78L21.92 24.74L21.82 24.76L20.62 26.4L18.8 28.86L17.36 30.38L17.02 30.52L16.42 30.22L16.48 29.66L16.82 29.18L18.8 26.64L20 25.06L20.78 24.16L20.76 24.04H20.72L15.44 27.48L14.5 27.6L14.08 27.22L14.14 26.6L14.34 26.4L15.92 25.3L19.86 23.1L19.92 22.9L19.86 22.8H19.66L19 22.76L16.76 22.7L14.82 22.62L12.92 22.52L12.44 22.42L12 21.82L12.04 21.52L12.44 21.26L13.02 21.3L14.28 21.4L16.18 21.52L17.56 21.6L19.6 21.82H19.92L19.96 21.68L19.86 21.6L19.78 21.52L17.8 20.2L15.68 18.8L14.56 17.98L13.96 17.56L13.66 17.18L13.54 16.34L14.08 15.74L14.82 15.8L15 15.84L15.74 16.42L17.32 17.64L19.4 19.18L19.7 19.42L19.84 19.34V19.28L19.7 19.06L18.58 17.02L17.38 14.94L16.84 14.08L16.7 13.56C16.6467 13.38 16.62 13.18 16.62 12.96L17.24 12.12L17.58 12L18.42 12.12L18.76 12.42L19.28 13.6L20.1 15.46L21.4 17.98L21.78 18.74L21.98 19.42L22.06 19.64H22.2V19.52L22.3 18.08L22.5 16.34L22.7 14.1L22.76 13.46L23.08 12.7L23.7 12.3L24.18 12.52L24.58 13.1L24.52 13.46L24.3 15L23.82 17.42L23.52 19.06H23.7L23.9 18.84L24.72 17.76L26.1 16.04L26.7 15.36L27.42 14.6L27.88 14.24H28.74L29.36 15.18L29.08 16.16L28.2 17.28L27.46 18.22L26.4 19.64L25.76 20.78L25.82 20.86H25.96L28.34 20.34L29.64 20.12L31.16 19.86L31.86 20.18L31.94 20.5L31.66 21.18L30.02 21.58L28.1 21.96L25.24 22.64L25.2 22.66L25.24 22.72L26.52 22.84L27.08 22.88H28.44L30.96 23.06L31.62 23.5L32 24.02L31.94 24.44L30.92 24.94L29.56 24.62L26.36 23.86L25.28 23.6H25.12V23.68L26.04 24.58L27.7 26.08L29.8 28.02L29.9 28.5L29.64 28.9L29.36 28.86L27.52 27.46L26.8 26.84L25.2 25.5H25.1V25.64L25.46 26.18L27.42 29.12L27.52 30.02L27.38 30.3L26.86 30.48L26.32 30.38L25.16 28.78L23.98 26.96L23.02 25.34L22.92 25.42L22.34 31.46L22.08 31.76L21.48 32Z" fill="white"/>
</g>
<defs>
<clipPath id="clip0_522_630">
<rect width="20" height="20" fill="white" transform="translate(12 12)"/>
</clipPath>
</defs>
</svg>
