<svg width="44" height="44" viewBox="0 0 44 44" fill="none" xmlns="http://www.w3.org/2000/svg">
<rect width="44" height="44" rx="11" fill="#1FB8CD"/>
<rect x="0.5" y="0.5" width="43" height="43" rx="10.5" stroke="#070707" stroke-opacity="0.1"/>
<path d="M30.5777 17.9892H28.2162V12L22.4612 17.3625V12H21.5052V17.3625L15.7502 12V17.9892H13.3887V26.6185H15.7439V32L21.5052 26.8717V32H22.4612V26.8717L28.2224 32V26.6185H30.5777V17.9892ZM27.2538 14.2032V17.9892H23.1956L27.2538 14.2032ZM16.7062 14.2032L20.7644 17.9892H16.7062V14.2032ZM14.3447 25.6625V18.9516H20.7518L15.7439 23.5543V25.6625H14.351H14.3447ZM16.6999 23.9721L21.5052 19.5594V25.5929L16.6999 29.8664V23.9721ZM27.2602 29.8664L22.4548 25.5929V19.5594L27.2602 23.9721V29.8664ZM29.6153 25.6625H28.2224V23.5543L23.2146 18.9516H29.6217V25.6625H29.6153Z" fill="white"/>
</svg>
