<svg width="44" height="44" viewBox="0 0 44 44" fill="none" xmlns="http://www.w3.org/2000/svg">
<rect width="44" height="44" rx="11" fill="white"/>
<rect x="0.5" y="0.5" width="43" height="43" rx="10.5" stroke="#070707" stroke-opacity="0.1"/>
<path d="M19.173 24.6355L27.0687 18.7999C27.4558 18.5139 28.0091 18.6254 28.1936 19.0698C29.1642 21.4134 28.7306 24.2297 26.7992 26.1634C24.8678 28.097 22.1805 28.5211 19.7242 27.5552L17.041 28.7991C20.8896 31.4327 25.5629 30.7815 28.4833 27.8556C30.7997 25.5364 31.5172 22.3751 30.8463 19.5243L30.8524 19.5304C29.8796 15.3425 31.0916 13.6685 33.5742 10.2455C33.6329 10.1644 33.6917 10.0832 33.7504 10L30.4836 13.2708V13.2607L19.171 24.6375" fill="black"/>
<path d="M17.5431 26.0537C14.7808 23.4118 15.257 19.3233 17.614 16.9656C19.3569 15.2206 22.2124 14.5084 24.7051 15.5554L27.3822 14.3177C26.9 13.9687 26.2819 13.5933 25.5725 13.3295C22.3665 12.0086 18.528 12.666 15.9218 15.2733C13.4149 17.7833 12.6265 21.6425 13.9803 24.9357C14.9916 27.3969 13.3338 29.1378 11.6638 30.8949C11.0721 31.5178 10.4783 32.1408 10 32.8002L17.541 26.0557" fill="black"/>
</svg>
