<svg width="629" height="108" viewBox="0 0 629 108" fill="none" xmlns="http://www.w3.org/2000/svg">
<path d="M0.196237 106.074V0H43.0714C50.9205 0 57.494 1.16351 62.7921 3.49054C68.0902 5.81757 72.0147 9.01723 74.6637 13.0895C77.3128 17.1618 78.6863 21.9128 78.6863 27.1487C78.6863 32.3845 77.8033 34.9054 76.1354 38.0081C74.4675 41.1108 72.1128 43.7287 69.2675 45.6679C66.3241 47.7041 63.0864 49.0615 59.26 49.8372V50.9037C63.3808 51.0977 67.2072 52.2612 70.7392 54.2973C74.3694 56.4304 77.2146 59.3392 79.4712 63.1207C81.7278 66.9021 82.8071 71.3622 82.8071 76.598C82.8071 81.8338 81.4335 87.1666 78.5882 91.6267C75.743 96.0869 71.6222 99.5774 66.1279 102.098C60.6336 104.619 53.8638 105.88 45.8186 105.88H0L0.196237 106.074ZM22.7621 44.4075H39.6375C42.7771 44.4075 45.5243 43.8257 47.9771 42.7592C50.4299 41.6926 52.294 40.1412 53.6676 38.1051C55.0412 36.0689 55.728 33.645 55.728 30.9301C55.728 28.2152 54.3544 24.046 51.7054 21.7189C48.9582 19.3919 45.1318 18.2284 40.0299 18.2284H22.7621V44.5044V44.4075ZM22.7621 87.7484H41.3054C47.5846 87.7484 52.1959 86.5849 55.1393 84.1609C58.0827 81.7369 59.4563 78.5372 59.4563 74.5619C59.4563 70.5865 58.7695 69.0352 57.2978 66.8051C55.9242 64.575 53.8638 62.8298 51.2148 61.4723C48.5658 60.2119 45.4262 59.5331 41.796 59.5331H22.664V87.7484H22.7621Z" fill="#070707"/>
<path d="M258.036 106.073V92.887L297.379 44.6981V44.1164H259.312V26.4697H324.164V40.9167L287.176 87.8451V88.4268H325.439V106.073H257.938H258.036Z" fill="#070707"/>
<path d="M508.812 107.624C500.571 107.624 493.507 105.879 487.62 102.388C481.733 98.8977 477.22 94.0497 473.982 87.9412C470.745 81.8328 469.273 74.6578 469.273 66.6101C469.273 58.5625 470.843 51.2905 474.08 45.0851C477.318 38.8797 481.831 34.1287 487.718 30.6382C493.605 27.1476 500.669 25.4023 508.812 25.4023C516.956 25.4023 521.959 26.6628 527.258 29.1838C532.556 31.7047 536.676 35.1953 539.718 39.7523C542.759 44.3094 544.427 49.6422 544.722 55.8476H523.725C523.333 53.2297 522.548 50.9027 521.273 48.8665C519.997 46.8304 518.329 45.376 516.269 44.2125C514.209 43.1459 511.756 42.5642 509.107 42.5642C506.458 42.5642 502.631 43.4368 500.08 45.279C497.529 47.1213 495.567 49.7392 494.095 53.3267C492.722 56.8172 491.937 61.1804 491.937 66.1253C491.937 71.0703 492.624 75.4335 494.095 79.1179C495.469 82.7054 497.529 85.5173 500.08 87.3595C502.631 89.2987 505.673 90.1713 509.107 90.1713C512.541 90.1713 516.171 89.0078 518.82 86.5838C521.469 84.1598 523.137 80.8632 523.725 76.6939H544.722C544.427 82.8024 542.759 88.1351 539.718 92.7892C536.774 97.4433 532.654 101.031 527.454 103.649C522.254 106.267 515.975 107.527 508.812 107.527V107.624Z" fill="#070707"/>
<path d="M625.37 39.3656C623.015 34.9054 619.778 31.5118 615.657 29.0879C611.438 26.6639 606.63 25.5004 601.038 25.5004C595.446 25.5004 589.853 26.8578 585.831 29.5726C581.808 32.2875 578.865 35.972 577 40.626H576.019V0L554.533 9.59899V105.977H576.804V60.0179C576.804 56.6244 577.491 53.7156 578.767 51.2916C580.042 48.8676 581.906 47.0254 584.163 45.6679C586.419 44.4075 589.166 43.7287 592.208 43.7287C596.721 43.7287 600.351 45.0862 602.804 47.898C605.355 50.6129 606.63 54.4913 606.63 59.3392V105.977H629V55.3639C629 49.0615 627.823 43.7287 625.468 39.2686L625.37 39.3656Z" fill="#070707"/>
<path d="M365.47 82.3183V43.1466H380.677V26.4696H365.47V7.5625L343.198 17.5493V26.4696H332.209V43.1466H343.198V84.9362C343.198 85.2271 343.198 85.421 343.198 85.6149V93.5656C343.198 101.322 349.575 107.625 357.424 107.625H380.677V85.6149H368.806C366.941 85.6149 365.47 84.1605 365.47 82.3183Z" fill="#070707"/>
<path d="M165.909 65.9321C165.909 59.145 164.928 53.2304 163.063 48.1885C161.101 43.1466 158.452 38.9774 155.018 35.5838C151.584 32.2872 147.562 29.7662 142.95 28.0209C138.339 26.3726 133.335 25.5 128.037 25.5C120.188 25.5 113.32 27.2453 107.433 30.7358C101.645 34.2264 97.1317 38.9774 93.894 45.1828C90.6563 51.3882 89.0864 58.4662 89.0864 66.7078C89.0864 74.9494 90.6563 82.4152 93.894 88.5237C97.1317 94.6321 101.645 99.3832 107.728 102.68C113.713 105.976 120.875 107.625 129.116 107.625C137.358 107.625 141.577 106.655 146.58 104.619C151.584 102.583 155.705 99.771 158.943 96.1835C162.18 92.596 164.241 88.3298 165.222 83.3848H144.029C143.343 84.7423 142.46 86.0027 141.38 86.9723C139.909 88.3298 138.143 89.3963 136.18 90.075C134.12 90.7538 131.864 91.1416 129.411 91.1416C125.781 91.1416 122.641 90.3659 119.894 88.7176C117.147 87.0693 114.988 84.7423 113.418 81.6396C112.045 78.9247 111.26 75.6281 111.162 71.8467H166.007V65.8352L165.909 65.9321ZM111.162 58.2723C111.456 55.6544 112.045 53.3274 113.026 51.1943C114.4 48.3824 116.264 46.0554 118.815 44.4071C121.365 42.7588 124.407 41.8862 128.037 41.8862C131.667 41.8862 134.709 42.6618 137.26 44.3101C139.713 45.9585 141.577 48.2855 142.852 51.2912C143.735 53.3274 144.226 55.6544 144.52 58.2723H111.162Z" fill="#070707"/>
<path d="M248.912 65.9321C248.912 59.145 247.93 53.2304 246.066 48.1885C244.104 43.1466 241.455 38.9774 238.021 35.5838C234.587 32.2872 230.564 29.7662 225.953 28.0209C221.342 26.3726 216.338 25.5 211.04 25.5C203.191 25.5 196.323 27.2453 190.436 30.7358C184.648 34.2264 180.135 38.9774 176.897 45.1828C173.659 51.3882 172.089 58.4662 172.089 66.7078C172.089 74.9494 172.972 78.4399 174.738 83.3848C175.327 85.1301 176.112 86.8754 176.897 88.4267C180.135 94.5352 184.648 99.2862 190.731 102.583C196.716 105.879 203.878 107.528 212.119 107.528C220.361 107.528 224.58 106.558 229.583 104.522C234.587 102.486 238.708 99.674 241.946 96.0865C245.183 92.499 247.244 88.2328 248.225 83.2879H227.032C226.346 84.6453 225.463 85.9058 224.383 86.8754C222.912 88.2328 221.146 89.2994 219.183 89.9781C217.123 90.6568 214.866 91.0446 212.414 91.0446C208.783 91.0446 205.644 90.269 202.897 88.6207C200.64 87.2632 198.874 85.518 197.402 83.2879C197.108 82.7061 196.716 82.2213 196.421 81.6396C195.048 78.9247 194.263 75.6281 194.165 71.8467H249.01V65.8352L248.912 65.9321ZM194.165 58.2723C194.459 55.6544 195.048 53.3274 196.029 51.1943C197.402 48.3824 199.267 46.0554 201.818 44.4071C204.368 42.7588 207.41 41.8862 211.04 41.8862C214.67 41.8862 217.712 42.6618 220.263 44.3101C222.715 45.9585 224.58 48.2855 225.855 51.2912C226.738 53.3274 227.229 55.6544 227.523 58.2723H194.165Z" fill="#070707"/>
<path d="M463.092 65.9321C463.092 59.145 462.111 53.2304 460.246 48.1885C458.284 43.1466 455.635 38.9774 452.201 35.5838C448.767 32.2872 444.745 29.7662 440.133 28.0209C435.522 26.3726 430.518 25.5 425.22 25.5C417.371 25.5 410.503 27.2453 404.617 30.7358C398.828 34.2264 394.315 38.9774 391.077 45.1828C387.839 51.3882 386.27 58.4662 386.27 66.7078C386.27 74.9494 387.153 78.4399 388.919 83.3848C389.507 85.1301 390.292 86.8754 391.077 88.4267C394.315 94.5352 398.828 99.2862 404.911 102.583C410.896 105.879 418.058 107.528 426.299 107.528C434.541 107.528 438.76 106.558 443.764 104.522C448.767 102.486 452.888 99.674 456.126 96.0865C459.363 92.499 461.424 88.2328 462.405 83.2879H441.213C440.526 84.6453 439.643 85.9058 438.564 86.8754C437.092 88.2328 435.326 89.2994 433.364 89.9781C431.303 90.6568 429.047 91.0446 426.594 91.0446C422.964 91.0446 419.824 90.269 417.077 88.6207C414.82 87.2632 413.054 85.518 411.583 83.2879C411.288 82.7061 410.896 82.2213 410.601 81.6396C409.228 78.9247 408.443 75.6281 408.345 71.8467H463.19V65.8352L463.092 65.9321ZM408.345 58.2723C408.639 55.6544 409.228 53.3274 410.209 51.1943C411.583 48.3824 413.447 46.0554 415.998 44.4071C418.549 42.7588 421.59 41.8862 425.22 41.8862C428.85 41.8862 431.892 42.6618 434.443 44.3101C436.896 45.9585 438.76 48.2855 440.035 51.2912C440.918 53.3274 441.409 55.6544 441.703 58.2723H408.345Z" fill="#070707"/>
</svg>
