<svg width="34" height="34" viewBox="0 0 34 34" fill="none" xmlns="http://www.w3.org/2000/svg">
<path d="M28.5363 23.9222C28.4645 24.0422 28.3696 24.1469 28.2572 24.2302C28.1449 24.3135 28.0171 24.3737 27.8814 24.4076C27.7457 24.4414 27.6046 24.448 27.4663 24.4272C27.3279 24.4064 27.1951 24.3584 27.0754 24.2861L18.0627 18.8766V28.6875C18.0627 28.9693 17.9508 29.2395 17.7515 29.4388C17.5522 29.6381 17.282 29.75 17.0002 29.75C16.7184 29.75 16.4482 29.6381 16.2489 29.4388C16.0496 29.2395 15.9377 28.9693 15.9377 28.6875V18.8766L6.92238 24.2861C6.80269 24.3596 6.6696 24.4087 6.53082 24.4305C6.39204 24.4522 6.25032 24.4462 6.11387 24.4129C5.97741 24.3795 5.84892 24.3194 5.73584 24.2361C5.62276 24.1527 5.52733 24.0478 5.45507 23.9273C5.3828 23.8069 5.33515 23.6733 5.31486 23.5343C5.29456 23.3953 5.30204 23.2536 5.33684 23.1175C5.37165 22.9814 5.4331 22.8536 5.51763 22.7414C5.60217 22.6292 5.70811 22.5349 5.82933 22.4639L14.935 17L5.82933 11.5361C5.70811 11.4651 5.60217 11.3708 5.51763 11.2586C5.4331 11.1464 5.37165 11.0186 5.33684 10.8825C5.30204 10.7464 5.29456 10.6047 5.31486 10.4657C5.33515 10.3267 5.3828 10.1931 5.45507 10.0727C5.52733 9.95219 5.62276 9.84725 5.73584 9.76391C5.84892 9.68057 5.97741 9.62048 6.11387 9.58711C6.25032 9.55375 6.39204 9.54778 6.53082 9.56954C6.6696 9.59131 6.80269 9.64037 6.92238 9.71391L15.9377 15.1234V5.3125C15.9377 5.03071 16.0496 4.76046 16.2489 4.5612C16.4482 4.36194 16.7184 4.25 17.0002 4.25C17.282 4.25 17.5522 4.36194 17.7515 4.5612C17.9508 4.76046 18.0627 5.03071 18.0627 5.3125V15.1234L27.078 9.71391C27.1977 9.64037 27.3308 9.59131 27.4696 9.56954C27.6083 9.54778 27.7501 9.55375 27.8865 9.58711C28.023 9.62048 28.1515 9.68057 28.2645 9.76391C28.3776 9.84725 28.4731 9.95219 28.5453 10.0727C28.6176 10.1931 28.6652 10.3267 28.6855 10.4657C28.7058 10.6047 28.6984 10.7464 28.6635 10.8825C28.6287 11.0186 28.5673 11.1464 28.4828 11.2586C28.3982 11.3708 28.2923 11.4651 28.1711 11.5361L19.0654 17L28.1711 22.4639C28.2908 22.5356 28.3953 22.6303 28.4785 22.7424C28.5617 22.8545 28.622 22.9819 28.6559 23.1174C28.6898 23.2528 28.6967 23.3936 28.6762 23.5317C28.6557 23.6698 28.6081 23.8025 28.5363 23.9222Z" fill="#070707"/>
</svg>
