<svg width="33" height="33" viewBox="0 0 33 33" fill="none" xmlns="http://www.w3.org/2000/svg">
<path d="M30.9376 7.21875V15.4688C30.9376 15.7423 30.8289 16.0046 30.6355 16.198C30.4421 16.3914 30.1798 16.5 29.9063 16.5C29.6328 16.5 29.3705 16.3914 29.1771 16.198C28.9837 16.0046 28.8751 15.7423 28.8751 15.4688V9.70793L18.2609 20.3234C18.1652 20.4192 18.0514 20.4953 17.9262 20.5472C17.8011 20.5991 17.6669 20.6258 17.5313 20.6258C17.3958 20.6258 17.2616 20.5991 17.1364 20.5472C17.0112 20.4953 16.8975 20.4192 16.8017 20.3234L12.3751 15.8954L3.82344 24.4484C3.62994 24.6419 3.36749 24.7506 3.09384 24.7506C2.82018 24.7506 2.55773 24.6419 2.36423 24.4484C2.17072 24.2549 2.06201 23.9924 2.06201 23.7188C2.06201 23.4451 2.17072 23.1826 2.36423 22.9891L11.6455 13.7079C11.7413 13.612 11.855 13.5359 11.9802 13.484C12.1054 13.4322 12.2396 13.4054 12.3751 13.4054C12.5106 13.4054 12.6448 13.4322 12.77 13.484C12.8952 13.5359 13.0089 13.612 13.1047 13.7079L17.5313 18.1358L27.4172 8.25H21.6563C21.3828 8.25 21.1205 8.14135 20.9271 7.94795C20.7337 7.75456 20.6251 7.49225 20.6251 7.21875C20.6251 6.94525 20.7337 6.68294 20.9271 6.48955C21.1205 6.29615 21.3828 6.1875 21.6563 6.1875H29.9063C30.1798 6.1875 30.4421 6.29615 30.6355 6.48955C30.8289 6.68294 30.9376 6.94525 30.9376 7.21875Z" fill="#070707"/>
</svg>
