<svg width="34" height="34" viewBox="0 0 34 34" fill="none" xmlns="http://www.w3.org/2000/svg">
<path d="M30.5907 18.7345C30.1953 18.4303 29.7351 18.2214 29.2459 18.124C28.7566 18.0265 28.2515 18.0432 27.7698 18.1727L22.2129 19.4504C22.3422 18.9043 22.3462 18.3359 22.2246 17.788C22.103 17.2401 21.8589 16.7269 21.5108 16.2867C21.1626 15.8465 20.7193 15.4909 20.2141 15.2464C19.7089 15.0019 19.155 14.8749 18.5938 14.875H11.9452C11.3868 14.8736 10.8337 14.9829 10.3178 15.1965C9.80197 15.4101 9.33354 15.7238 8.93961 16.1195L5.93539 19.125H2.125C1.56141 19.125 1.02091 19.3489 0.622398 19.7474C0.223883 20.1459 0 20.6864 0 21.25L0 26.5625C0 27.1261 0.223883 27.6666 0.622398 28.0651C1.02091 28.4636 1.56141 28.6875 2.125 28.6875H15.9375C16.0244 28.6875 16.1109 28.6768 16.1952 28.6556L24.6952 26.5306C24.7493 26.5177 24.8022 26.5 24.8532 26.4775L30.0156 24.2808L30.0741 24.2542C30.5702 24.0063 30.9951 23.6362 31.3086 23.1787C31.6222 22.7212 31.8141 22.1914 31.8663 21.6392C31.9185 21.087 31.8293 20.5306 31.6071 20.0225C31.3848 19.5143 31.0369 19.0711 30.596 18.7345H30.5907ZM2.125 21.25H5.3125V26.5625H2.125V21.25ZM29.143 22.3404L24.0962 24.4893L15.8047 26.5625H7.4375V20.6271L10.443 17.6229C10.6397 17.4247 10.8737 17.2676 11.1316 17.1607C11.3894 17.0537 11.666 16.9991 11.9452 17H18.5938C19.0164 17 19.4218 17.1679 19.7207 17.4668C20.0196 17.7657 20.1875 18.1711 20.1875 18.5938C20.1875 19.0164 20.0196 19.4218 19.7207 19.7207C19.4218 20.0196 19.0164 20.1875 18.5938 20.1875H14.875C14.5932 20.1875 14.323 20.2994 14.1237 20.4987C13.9244 20.698 13.8125 20.9682 13.8125 21.25C13.8125 21.5318 13.9244 21.802 14.1237 22.0013C14.323 22.2006 14.5932 22.3125 14.875 22.3125H19.125C19.205 22.3123 19.2847 22.3034 19.3627 22.2859L28.2612 20.2393L28.3023 20.2287C28.574 20.1533 28.8639 20.181 29.1164 20.3065C29.3688 20.432 29.5659 20.6464 29.6697 20.9085C29.7736 21.1706 29.7768 21.4618 29.6789 21.7262C29.5809 21.9905 29.3886 22.2093 29.1391 22.3404H29.143ZM21.7812 12.75C22.0438 12.7503 22.3058 12.729 22.5648 12.6863C22.8562 13.5516 23.3892 14.3154 24.1009 14.8874C24.8125 15.4594 25.6731 15.8157 26.5808 15.9141C27.4886 16.0125 28.4055 15.849 29.2232 15.4428C30.041 15.0366 30.7253 14.4047 31.1953 13.6219C31.6653 12.8391 31.9014 11.9381 31.8755 11.0254C31.8497 10.1127 31.5631 9.22653 31.0495 8.47158C30.536 7.71662 29.817 7.12449 28.9776 6.7652C28.1383 6.4059 27.2135 6.29447 26.3128 6.44406C26.0323 5.61033 25.5272 4.87014 24.8531 4.30496C24.1791 3.73977 23.3621 3.3715 22.4923 3.24068C21.6224 3.10985 20.7333 3.22154 19.9228 3.56345C19.1123 3.90536 18.4118 4.46424 17.8985 5.17858C17.3852 5.89292 17.0788 6.73504 17.0132 7.61225C16.9477 8.48946 17.1253 9.36777 17.5267 10.1505C17.9281 10.9332 18.5377 11.5901 19.2883 12.0487C20.039 12.5074 20.9016 12.75 21.7812 12.75ZM29.75 11.1563C29.75 11.6816 29.5942 12.1952 29.3023 12.632C29.0105 13.0688 28.5956 13.4093 28.1103 13.6103C27.6249 13.8114 27.0908 13.864 26.5755 13.7615C26.0603 13.659 25.587 13.406 25.2155 13.0345C24.844 12.663 24.591 12.1897 24.4885 11.6745C24.386 11.1592 24.4387 10.6251 24.6397 10.1397C24.8407 9.65438 25.1812 9.23953 25.618 8.94766C26.0548 8.65579 26.5684 8.5 27.0938 8.5C27.7982 8.5 28.4739 8.77986 28.972 9.278C29.4701 9.77614 29.75 10.4518 29.75 11.1563ZM21.7812 5.3125C22.3607 5.31279 22.9242 5.50256 23.3858 5.85289C23.8474 6.20321 24.1817 6.69486 24.3379 7.25289C23.7937 7.63579 23.3354 8.12804 22.9924 8.69818C22.6494 9.26832 22.4291 9.90378 22.3457 10.5639C22.1602 10.604 21.971 10.6244 21.7812 10.625C21.0768 10.625 20.4011 10.3451 19.903 9.84701C19.4049 9.34886 19.125 8.67323 19.125 7.96875C19.125 7.26427 19.4049 6.58864 19.903 6.0905C20.4011 5.59236 21.0768 5.3125 21.7812 5.3125Z" fill="#070707"/>
</svg>
