<svg width="33" height="33" viewBox="0 0 33 33" fill="none" xmlns="http://www.w3.org/2000/svg">
<path d="M31.7111 12.7269L24.4923 4.47691C24.3958 4.36668 24.2769 4.27827 24.1435 4.21759C24.0102 4.15691 23.8654 4.12535 23.7189 4.125H9.28137C9.13485 4.12535 8.99008 4.15691 8.85672 4.21759C8.72335 4.27827 8.60445 4.36668 8.50793 4.47691L1.28918 12.7269C1.12077 12.9192 1.02977 13.1672 1.03382 13.4227C1.03787 13.6783 1.13668 13.9232 1.3111 14.1101L15.7486 29.5788C15.8451 29.6823 15.9618 29.7648 16.0916 29.8212C16.2213 29.8775 16.3612 29.9067 16.5027 29.9067C16.6442 29.9067 16.7841 29.8775 16.9138 29.8212C17.0436 29.7648 17.1603 29.6823 17.2568 29.5788L31.6943 14.1101C31.868 13.9226 31.9659 13.6773 31.969 13.4217C31.9721 13.1662 31.8802 12.9186 31.7111 12.7269ZM28.665 12.375H23.2032L18.5626 6.1875H23.2509L28.665 12.375ZM9.61395 14.4375L13.4979 24.148L4.43578 14.4375H9.61395ZM21.1639 14.4375L16.5001 26.0984L11.8363 14.4375H21.1639ZM12.3751 12.375L16.5001 6.87457L20.6251 12.375H12.3751ZM23.3863 14.4375H28.5645L19.5023 24.148L23.3863 14.4375ZM9.7493 6.1875H14.4376L9.79699 12.375H4.33524L9.7493 6.1875Z" fill="#070707"/>
</svg>
