<svg width="34" height="34" viewBox="0 0 34 34" fill="none" xmlns="http://www.w3.org/2000/svg">
<path d="M27.625 5.3125H6.375C5.81141 5.3125 5.27091 5.53638 4.8724 5.9349C4.47388 6.33341 4.25 6.87391 4.25 7.4375V14.875C4.25 21.8769 7.63937 26.1202 10.4829 28.4471C13.5455 30.952 16.5923 31.802 16.7251 31.8378C16.9077 31.8875 17.1003 31.8875 17.2829 31.8378C17.4157 31.802 20.4584 30.952 23.5251 28.4471C26.3606 26.1202 29.75 21.8769 29.75 14.875V7.4375C29.75 6.87391 29.5261 6.33341 29.1276 5.9349C28.7291 5.53638 28.1886 5.3125 27.625 5.3125ZM27.625 14.875C27.625 19.7984 25.8108 23.7947 22.2328 26.7511C20.6753 28.0337 18.9039 29.0318 17 29.6995C15.121 29.0434 13.3715 28.063 11.8309 26.8029C8.21047 23.8412 6.375 19.8289 6.375 14.875V7.4375H27.625V14.875ZM10.9358 18.8142C10.7364 18.6149 10.6244 18.3444 10.6244 18.0625C10.6244 17.7806 10.7364 17.5101 10.9358 17.3108C11.1351 17.1114 11.4056 16.9994 11.6875 16.9994C11.9694 16.9994 12.2399 17.1114 12.4392 17.3108L14.875 19.7479L21.5608 13.0608C21.6595 12.9621 21.7767 12.8838 21.9057 12.8303C22.0347 12.7769 22.1729 12.7494 22.3125 12.7494C22.4521 12.7494 22.5903 12.7769 22.7193 12.8303C22.8483 12.8838 22.9655 12.9621 23.0642 13.0608C23.1629 13.1595 23.2412 13.2767 23.2947 13.4057C23.3481 13.5347 23.3756 13.6729 23.3756 13.8125C23.3756 13.9521 23.3481 14.0903 23.2947 14.2193C23.2412 14.3483 23.1629 14.4655 23.0642 14.5642L15.6267 22.0017C15.528 22.1005 15.4109 22.1789 15.2819 22.2323C15.1529 22.2858 15.0146 22.3133 14.875 22.3133C14.7354 22.3133 14.5971 22.2858 14.4681 22.2323C14.3391 22.1789 14.222 22.1005 14.1233 22.0017L10.9358 18.8142Z" fill="#070707"/>
</svg>
